<mxfile host="app.diagrams.net" modified="2023-06-04T21:34:16.973Z" agent="Mozilla/5.0 (Macintosh; Intel Mac OS X 10_15_7) AppleWebKit/537.36 (KHTML, like Gecko) Chrome/114.0.0.0 Safari/537.36" etag="TjKoF9ihAWXqD667STI0" version="21.3.7" type="device">
  <diagram name="Página-1" id="WTcoo4MvFrdp_oy_-4_p">
    <mxGraphModel dx="954" dy="591" grid="1" gridSize="10" guides="1" tooltips="1" connect="1" arrows="1" fold="1" page="1" pageScale="1" pageWidth="827" pageHeight="1169" math="0" shadow="0">
      <root>
        <mxCell id="0" />
        <mxCell id="1" parent="0" />
        <mxCell id="gW7g0cJVWxtd-LgrTd_W-101" style="edgeStyle=none;shape=link;rounded=0;orthogonalLoop=1;jettySize=auto;html=1;exitX=0.5;exitY=1;exitDx=0;exitDy=0;entryX=0.5;entryY=0;entryDx=0;entryDy=0;width=0;" edge="1" parent="1" source="gW7g0cJVWxtd-LgrTd_W-1" target="gW7g0cJVWxtd-LgrTd_W-98">
          <mxGeometry relative="1" as="geometry" />
        </mxCell>
        <mxCell id="gW7g0cJVWxtd-LgrTd_W-1" value="S - Pizza&lt;br&gt;€15" style="whiteSpace=wrap;html=1;aspect=fixed;" vertex="1" parent="1">
          <mxGeometry x="79" y="370" width="170" height="170" as="geometry" />
        </mxCell>
        <mxCell id="gW7g0cJVWxtd-LgrTd_W-104" style="edgeStyle=none;shape=link;rounded=0;orthogonalLoop=1;jettySize=auto;html=1;exitX=0.5;exitY=1;exitDx=0;exitDy=0;entryX=0.5;entryY=0;entryDx=0;entryDy=0;width=1;" edge="1" parent="1" source="gW7g0cJVWxtd-LgrTd_W-3" target="gW7g0cJVWxtd-LgrTd_W-103">
          <mxGeometry relative="1" as="geometry" />
        </mxCell>
        <mxCell id="gW7g0cJVWxtd-LgrTd_W-3" value="M - Pizza&lt;br&gt;€20" style="whiteSpace=wrap;html=1;aspect=fixed;" vertex="1" parent="1">
          <mxGeometry x="329" y="370" width="170" height="170" as="geometry" />
        </mxCell>
        <mxCell id="gW7g0cJVWxtd-LgrTd_W-105" style="edgeStyle=none;shape=link;rounded=0;orthogonalLoop=1;jettySize=auto;html=1;exitX=0.5;exitY=1;exitDx=0;exitDy=0;width=0;" edge="1" parent="1" source="gW7g0cJVWxtd-LgrTd_W-4">
          <mxGeometry relative="1" as="geometry">
            <mxPoint x="549" y="620" as="targetPoint" />
            <Array as="points" />
          </mxGeometry>
        </mxCell>
        <mxCell id="gW7g0cJVWxtd-LgrTd_W-4" value="L - Pizza&lt;br&gt;€25" style="whiteSpace=wrap;html=1;aspect=fixed;" vertex="1" parent="1">
          <mxGeometry x="579" y="370" width="170" height="170" as="geometry" />
        </mxCell>
        <mxCell id="gW7g0cJVWxtd-LgrTd_W-98" value="Pepperoni&lt;br&gt;+€2" style="ellipse;whiteSpace=wrap;html=1;aspect=fixed;" vertex="1" parent="1">
          <mxGeometry x="109" y="620" width="110" height="110" as="geometry" />
        </mxCell>
        <mxCell id="gW7g0cJVWxtd-LgrTd_W-103" value="Pepperoni&lt;br&gt;+€3" style="ellipse;whiteSpace=wrap;html=1;aspect=fixed;" vertex="1" parent="1">
          <mxGeometry x="489" y="620" width="110" height="110" as="geometry" />
        </mxCell>
        <mxCell id="gW7g0cJVWxtd-LgrTd_W-115" value="Extra Cheese&lt;br&gt;+€1" style="rounded=1;whiteSpace=wrap;html=1;" vertex="1" parent="1">
          <mxGeometry x="248" y="100" width="332" height="100" as="geometry" />
        </mxCell>
        <mxCell id="gW7g0cJVWxtd-LgrTd_W-116" value="" style="endArrow=none;html=1;rounded=0;shape=link;curved=1;entryX=0.25;entryY=1;entryDx=0;entryDy=0;exitX=0.5;exitY=0;exitDx=0;exitDy=0;" edge="1" parent="1" source="gW7g0cJVWxtd-LgrTd_W-1" target="gW7g0cJVWxtd-LgrTd_W-115">
          <mxGeometry width="50" height="50" relative="1" as="geometry">
            <mxPoint x="400" y="310" as="sourcePoint" />
            <mxPoint x="450" y="260" as="targetPoint" />
          </mxGeometry>
        </mxCell>
        <mxCell id="gW7g0cJVWxtd-LgrTd_W-117" value="" style="endArrow=none;html=1;rounded=0;shape=link;curved=1;exitX=0.5;exitY=0;exitDx=0;exitDy=0;entryX=0.5;entryY=1;entryDx=0;entryDy=0;" edge="1" parent="1" source="gW7g0cJVWxtd-LgrTd_W-3" target="gW7g0cJVWxtd-LgrTd_W-115">
          <mxGeometry width="50" height="50" relative="1" as="geometry">
            <mxPoint x="249" y="370" as="sourcePoint" />
            <mxPoint x="440" y="230" as="targetPoint" />
          </mxGeometry>
        </mxCell>
        <mxCell id="gW7g0cJVWxtd-LgrTd_W-118" value="" style="endArrow=none;html=1;rounded=0;shape=link;curved=1;entryX=0.75;entryY=1;entryDx=0;entryDy=0;exitX=0.5;exitY=0;exitDx=0;exitDy=0;" edge="1" parent="1" source="gW7g0cJVWxtd-LgrTd_W-4" target="gW7g0cJVWxtd-LgrTd_W-115">
          <mxGeometry width="50" height="50" relative="1" as="geometry">
            <mxPoint x="350" y="370" as="sourcePoint" />
            <mxPoint x="517" y="200" as="targetPoint" />
          </mxGeometry>
        </mxCell>
      </root>
    </mxGraphModel>
  </diagram>
</mxfile>
